<mxfile host="app.diagrams.net" agent="Mozilla/5.0 (Windows NT 10.0; Win64; x64) AppleWebKit/537.36 (KHTML, like Gecko) Chrome/127.0.0.0 Safari/537.36" version="24.7.6">
  <diagram name="Página-1" id="usELeS_mLVsjYApyYxsu">
    <mxGraphModel dx="1499" dy="686" grid="1" gridSize="10" guides="1" tooltips="1" connect="1" arrows="1" fold="1" page="1" pageScale="1" pageWidth="827" pageHeight="1169" math="0" shadow="0">
      <root>
        <mxCell id="0" />
        <mxCell id="1" parent="0" />
        <mxCell id="-mZYVCNPapAWrI3QZL0S-1" value="33" style="ellipse;whiteSpace=wrap;html=1;aspect=fixed;" vertex="1" parent="1">
          <mxGeometry x="374" y="130" width="80" height="80" as="geometry" />
        </mxCell>
        <mxCell id="-mZYVCNPapAWrI3QZL0S-3" value="28" style="ellipse;whiteSpace=wrap;html=1;aspect=fixed;" vertex="1" parent="1">
          <mxGeometry x="230" y="280" width="80" height="80" as="geometry" />
        </mxCell>
        <mxCell id="-mZYVCNPapAWrI3QZL0S-4" value="34" style="ellipse;whiteSpace=wrap;html=1;aspect=fixed;" vertex="1" parent="1">
          <mxGeometry x="530" y="280" width="80" height="80" as="geometry" />
        </mxCell>
        <mxCell id="-mZYVCNPapAWrI3QZL0S-6" value="" style="endArrow=none;html=1;rounded=0;entryX=0;entryY=1;entryDx=0;entryDy=0;exitX=1;exitY=0;exitDx=0;exitDy=0;" edge="1" parent="1" source="-mZYVCNPapAWrI3QZL0S-3" target="-mZYVCNPapAWrI3QZL0S-1">
          <mxGeometry width="50" height="50" relative="1" as="geometry">
            <mxPoint x="324" y="270" as="sourcePoint" />
            <mxPoint x="374" y="220" as="targetPoint" />
          </mxGeometry>
        </mxCell>
        <mxCell id="-mZYVCNPapAWrI3QZL0S-7" value="14" style="ellipse;whiteSpace=wrap;html=1;aspect=fixed;" vertex="1" parent="1">
          <mxGeometry x="170" y="400" width="80" height="80" as="geometry" />
        </mxCell>
        <mxCell id="-mZYVCNPapAWrI3QZL0S-8" value="" style="endArrow=none;html=1;rounded=0;entryX=1;entryY=1;entryDx=0;entryDy=0;" edge="1" parent="1" source="-mZYVCNPapAWrI3QZL0S-4" target="-mZYVCNPapAWrI3QZL0S-1">
          <mxGeometry width="50" height="50" relative="1" as="geometry">
            <mxPoint x="334" y="280" as="sourcePoint" />
            <mxPoint x="384" y="230" as="targetPoint" />
          </mxGeometry>
        </mxCell>
        <mxCell id="-mZYVCNPapAWrI3QZL0S-9" value="87" style="ellipse;whiteSpace=wrap;html=1;aspect=fixed;" vertex="1" parent="1">
          <mxGeometry x="670" y="520" width="80" height="80" as="geometry" />
        </mxCell>
        <mxCell id="-mZYVCNPapAWrI3QZL0S-10" value="45" style="ellipse;whiteSpace=wrap;html=1;aspect=fixed;" vertex="1" parent="1">
          <mxGeometry x="600" y="390" width="80" height="80" as="geometry" />
        </mxCell>
        <mxCell id="-mZYVCNPapAWrI3QZL0S-11" value="" style="endArrow=none;html=1;rounded=0;entryX=0;entryY=1;entryDx=0;entryDy=0;exitX=0.5;exitY=0;exitDx=0;exitDy=0;" edge="1" parent="1" source="-mZYVCNPapAWrI3QZL0S-7" target="-mZYVCNPapAWrI3QZL0S-3">
          <mxGeometry width="50" height="50" relative="1" as="geometry">
            <mxPoint x="390" y="380" as="sourcePoint" />
            <mxPoint x="440" y="330" as="targetPoint" />
          </mxGeometry>
        </mxCell>
        <mxCell id="-mZYVCNPapAWrI3QZL0S-12" value="" style="endArrow=none;html=1;rounded=0;entryX=1;entryY=1;entryDx=0;entryDy=0;exitX=0.5;exitY=0;exitDx=0;exitDy=0;" edge="1" parent="1" source="-mZYVCNPapAWrI3QZL0S-9" target="-mZYVCNPapAWrI3QZL0S-10">
          <mxGeometry width="50" height="50" relative="1" as="geometry">
            <mxPoint x="390" y="380" as="sourcePoint" />
            <mxPoint x="440" y="330" as="targetPoint" />
          </mxGeometry>
        </mxCell>
        <mxCell id="-mZYVCNPapAWrI3QZL0S-13" value="" style="endArrow=none;html=1;rounded=0;entryX=1;entryY=1;entryDx=0;entryDy=0;exitX=0.5;exitY=0;exitDx=0;exitDy=0;" edge="1" parent="1" source="-mZYVCNPapAWrI3QZL0S-10" target="-mZYVCNPapAWrI3QZL0S-4">
          <mxGeometry width="50" height="50" relative="1" as="geometry">
            <mxPoint x="390" y="380" as="sourcePoint" />
            <mxPoint x="440" y="330" as="targetPoint" />
          </mxGeometry>
        </mxCell>
        <mxCell id="-mZYVCNPapAWrI3QZL0S-14" value="Nó" style="text;html=1;align=center;verticalAlign=middle;whiteSpace=wrap;rounded=0;" vertex="1" parent="1">
          <mxGeometry x="190" y="250" width="60" height="30" as="geometry" />
        </mxCell>
        <mxCell id="-mZYVCNPapAWrI3QZL0S-15" value="Nó" style="text;html=1;align=center;verticalAlign=middle;whiteSpace=wrap;rounded=0;" vertex="1" parent="1">
          <mxGeometry x="580" y="250" width="60" height="30" as="geometry" />
        </mxCell>
        <mxCell id="-mZYVCNPapAWrI3QZL0S-16" value="Folhas" style="text;html=1;align=center;verticalAlign=middle;whiteSpace=wrap;rounded=0;" vertex="1" parent="1">
          <mxGeometry x="170" y="480" width="60" height="30" as="geometry" />
        </mxCell>
        <mxCell id="-mZYVCNPapAWrI3QZL0S-17" value="Folhas" style="text;html=1;align=center;verticalAlign=middle;whiteSpace=wrap;rounded=0;" vertex="1" parent="1">
          <mxGeometry x="310" y="480" width="60" height="30" as="geometry" />
        </mxCell>
        <mxCell id="-mZYVCNPapAWrI3QZL0S-18" value="Folhas" style="text;html=1;align=center;verticalAlign=middle;whiteSpace=wrap;rounded=0;" vertex="1" parent="1">
          <mxGeometry x="464" y="480" width="60" height="30" as="geometry" />
        </mxCell>
        <mxCell id="-mZYVCNPapAWrI3QZL0S-19" value="34,28,45,33,14,87" style="text;html=1;align=center;verticalAlign=middle;whiteSpace=wrap;rounded=0;" vertex="1" parent="1">
          <mxGeometry x="30" y="10" width="60" height="30" as="geometry" />
        </mxCell>
      </root>
    </mxGraphModel>
  </diagram>
</mxfile>
